<?xml version="1.0" encoding="UTF-8" standalone="no"?>
<svg
   height="16"
   viewBox="0 0 16 16"
   width="16"
   version="1.1"
   id="svg4"
   xmlns="http://www.w3.org/2000/svg"
   xmlns:svg="http://www.w3.org/2000/svg">
  <path
     id="rect12"
     style="fill:#8eef97;fill-opacity:1;stroke-width:0.534406;stroke-linecap:round;stroke-linejoin:round"
     d="M 2 2 L 2 4 L 2 12 L 2 14 L 6 14 L 6 12 L 4 12 L 4 4 L 6 4 L 6 2 L 2 2 z M 10 2 L 10 4 L 12 4 L 12 12 L 10 12 L 10 14 L 14 14 L 14 12 L 14 2 L 10 2 z M 8.4335938 4.7871094 C 7.9359857 4.7871094 7.4922719 4.871916 7.1035156 5.0429688 C 6.7147594 5.2140215 6.3834575 5.4486859 6.1113281 5.7441406 C 5.8391987 6.0318203 5.6301493 6.3729999 5.4824219 6.7695312 C 5.3424696 7.1582875 5.2714844 7.574396 5.2714844 8.0175781 C 5.2714844 8.4763105 5.3306387 8.9042499 5.4472656 9.3007812 C 5.5716676 9.6895375 5.7629521 10.026773 6.0195312 10.314453 C 6.2838855 10.602133 6.6171779 10.832853 7.0214844 11.003906 C 7.4257909 11.167184 7.908941 11.248047 8.46875 11.248047 C 8.8341809 11.248047 9.1674732 11.216498 9.4707031 11.154297 C 9.773933 11.092096 10.026362 11.01912 10.228516 10.933594 L 9.984375 9.5097656 C 9.7822217 9.595292 9.5593883 9.65839 9.3183594 9.6972656 C 9.0773305 9.7361413 8.8525065 9.7558594 8.6425781 9.7558594 C 8.0516686 9.7558594 7.6355601 9.6040111 7.3945312 9.3007812 C 7.1612775 8.9975514 7.0449219 8.569612 7.0449219 8.0175781 C 7.0449219 7.4966447 7.1691647 7.0765926 7.4179688 6.7578125 C 7.6745479 6.4390324 8.0591074 6.2792969 8.5722656 6.2792969 C 8.8132945 6.2792969 9.0321844 6.3029586 9.2265625 6.3496094 C 9.4209406 6.3962601 9.5984411 6.4514709 9.7617188 6.5136719 L 10.123047 5.125 C 9.8664677 5.0161482 9.6022075 4.9352853 9.3300781 4.8808594 C 9.0579487 4.8186584 8.760149 4.7871094 8.4335938 4.7871094 z " />
  <defs
     id="defs4" />
  <linearGradient
     id="a"
     gradientUnits="userSpaceOnUse"
     x2="0"
     y1="1"
     y2="15">
    <stop
       offset="0"
       stop-color="#ff5f5f"
       id="stop1" />
    <stop
       offset=".5"
       stop-color="#e1da5b"
       id="stop2" />
    <stop
       offset="1"
       stop-color="#5fff97"
       id="stop3" />
  </linearGradient>
</svg>
