<?xml version="1.0" encoding="UTF-8" standalone="no"?>
<svg
   height="16"
   viewBox="0 0 16 16"
   width="16"
   version="1.1"
   id="svg3"
   sodipodi:docname="CaptionedAudioStream.svg"
   inkscape:version="1.4 (e7c3feb100, 2024-10-09)"
   xml:space="preserve"
   xmlns:inkscape="http://www.inkscape.org/namespaces/inkscape"
   xmlns:sodipodi="http://sodipodi.sourceforge.net/DTD/sodipodi-0.dtd"
   xmlns="http://www.w3.org/2000/svg"
   xmlns:svg="http://www.w3.org/2000/svg"><sodipodi:namedview
     id="namedview1"
     pagecolor="#505050"
     bordercolor="#eeeeee"
     borderopacity="1"
     inkscape:showpageshadow="0"
     inkscape:pageopacity="0"
     inkscape:pagecheckerboard="0"
     inkscape:deskcolor="#d1d1d1"
     inkscape:zoom="12.048746"
     inkscape:cx="-9.2125768"
     inkscape:cy="2.3238932"
     inkscape:window-width="2560"
     inkscape:window-height="1534"
     inkscape:window-x="0"
     inkscape:window-y="0"
     inkscape:window-maximized="1"
     inkscape:current-layer="svg3"><inkscape:page
       x="0"
       y="0"
       width="16"
       height="16"
       id="page1"
       margin="0"
       bleed="0" /></sodipodi:namedview><defs
     id="defs3" /><linearGradient
     id="a"
     gradientUnits="userSpaceOnUse"
     x2="12.417794"
     y1="6.4340234"
     y2="16.090298"
     gradientTransform="translate(1,-8)"
     x1="5.5648069"><stop
       offset="0"
       stop-color="#ff5f5f"
       id="stop1"
       style="stop-color:#c67979;stop-opacity:1;" /><stop
       offset="0.5"
       stop-color="#e1da5b"
       id="stop2"
       style="stop-color:#ada666;stop-opacity:1;" /><stop
       offset="1"
       stop-color="#5fff97"
       id="stop3"
       style="stop-color:#42995e;stop-opacity:1;" /></linearGradient><path
     id="path6"
     style="fill:#9d9d9d;fill-opacity:1;stroke-width:0.534406;stroke-linecap:round;stroke-linejoin:round"
     d="m 2,9 v 1 4.002094 1 h 2 v -1 H 3 V 10 H 4 V 9 Z"
     sodipodi:nodetypes="ccccccccccc" /><path
     id="path7"
     style="fill:#9d9d9d;fill-opacity:1;stroke-width:0.534406;stroke-linecap:round;stroke-linejoin:round"
     d="m 14,9 v 1 4.002094 1 h -2 v -1 h 1 V 10 H 12 V 9 Z"
     sodipodi:nodetypes="ccccccccccc" /><path
     id="path1"
     style="fill:#f9f9f9;fill-opacity:1;stroke-width:7.55906;stroke-linecap:round;paint-order:stroke fill markers"
     d="M 7.2734375,8 7,9.3125 V 9.347656 A 2.375,2.375 0 0 0 6.640625,9.5605469 L 6.6054688,9.5410156 5.3320312,9.1210938 5.0371094,9.6308594 4.6054688,10.378906 l 1,0.892578 0.033203,0.01953 A 2.375,2.375 0 0 0 5.625,11.501953 2.375,2.375 0 0 0 5.638672,11.708984 l -0.033203,0.01953 -1,0.892578 0.2949218,0.509765 0.4316406,0.748047 1.2734376,-0.419922 0.03125,-0.01758 A 2.375,2.375 0 0 0 7,13.654297 v 0.0332 L 7.2734375,15 H 7.8632812 8.7265625 L 9,13.6875 v -0.0332 a 2.375,2.375 0 0 0 0.3632812,-0.212891 l 0.03125,0.01758 1.2734378,0.419922 0.43164,-0.748047 0.146485,-0.253906 0.148437,-0.255859 -1,-0.892578 -0.0332,-0.01953 a 2.375,2.375 0 0 0 0.01367,-0.207031 2.375,2.375 0 0 0 -0.0098,-0.212891 l 0.0293,-0.01758 1,-0.892578 L 10.962891,9.6308594 10.814453,9.3769531 10.667969,9.1210938 9.3945312,9.5410156 9.3652344,9.5585938 A 2.375,2.375 0 0 0 9,9.3476562 V 9.3125 L 8.7265625,8 H 7.8632812 7.5683594 Z M 8,10.345703 A 1.1557475,1.1557475 0 0 1 9.15625,11.501953 1.1557475,1.1557475 0 0 1 8,12.65625 1.1557475,1.1557475 0 0 1 6.84375,11.501953 1.1557475,1.1557475 0 0 1 8,10.345703 Z" /><linearGradient
     id="a-2"
     gradientUnits="userSpaceOnUse"
     x2="12.417794"
     y1="7.5746484"
     y2="16.090298"
     gradientTransform="translate(4.8460413,-16.601716)"
     x1="3.8148069"><stop
       offset="0"
       stop-color="#ff5f5f"
       id="stop1-0" /><stop
       offset=".5"
       stop-color="#e1da5b"
       id="stop2-2" /><stop
       offset="1"
       stop-color="#5fff97"
       id="stop3-3" /></linearGradient><linearGradient
     id="a-7"
     x2="0"
     y1="1"
     y2="15"
     gradientUnits="userSpaceOnUse"
     gradientTransform="translate(43.650429)"><stop
       offset="0"
       stop-color="#ff5f5f"
       id="stop1-5" /><stop
       offset=".5"
       stop-color="#e1da5b"
       id="stop2-3" /><stop
       offset="1"
       stop-color="#5fff97"
       id="stop3-5" /></linearGradient><path
     id="path2"
     style="fill:#9d9d9d;fill-opacity:1;stroke:none;stroke-width:2.1651;stroke-linecap:round;stroke-linejoin:round;paint-order:stroke fill markers"
     d="m 11.929688,1.0019531 c -0.08376,0.00588 -0.166438,0.022286 -0.246094,0.048828 l -6,2 C 5.2751545,3.1870455 4.9997749,3.5694298 5,4 V 6 C 4.6489604,5.9998872 4.3040744,6.0921711 4,6.2675781 3.381083,6.62491 2.9998674,7.2853362 3,8 H 5 7 V 4.7207035 L 11,3.3886723 V 6 C 9.8954305,6 9,6.8954305 9,8 h 4 V 2 C 13.00024,1.4198496 12.508407,0.9612236 11.929688,1.0019531 Z"
     sodipodi:nodetypes="cccccccccccccccc" /></svg>
