<?xml version="1.0" encoding="UTF-8" standalone="no"?>
<svg
   height="16"
   viewBox="0 0 16 16"
   width="16"
   version="1.1"
   id="svg3"
   sodipodi:docname="CaptionSequenceAudioStream.svg"
   inkscape:version="1.4 (e7c3feb100, 2024-10-09)"
   xml:space="preserve"
   xmlns:inkscape="http://www.inkscape.org/namespaces/inkscape"
   xmlns:sodipodi="http://sodipodi.sourceforge.net/DTD/sodipodi-0.dtd"
   xmlns:xlink="http://www.w3.org/1999/xlink"
   xmlns="http://www.w3.org/2000/svg"
   xmlns:svg="http://www.w3.org/2000/svg"><sodipodi:namedview
     id="namedview1"
     pagecolor="#505050"
     bordercolor="#eeeeee"
     borderopacity="1"
     inkscape:showpageshadow="0"
     inkscape:pageopacity="0"
     inkscape:pagecheckerboard="0"
     inkscape:deskcolor="#d1d1d1"
     inkscape:zoom="46.581966"
     inkscape:cx="11.291924"
     inkscape:cy="3.7568187"
     inkscape:window-width="2560"
     inkscape:window-height="1534"
     inkscape:window-x="0"
     inkscape:window-y="0"
     inkscape:window-maximized="1"
     inkscape:current-layer="svg3"><inkscape:page
       x="0"
       y="0"
       width="16"
       height="16"
       id="page1"
       margin="0"
       bleed="0" /></sodipodi:namedview><defs
     id="defs3"><linearGradient
       inkscape:collect="always"
       xlink:href="#a-7"
       id="linearGradient24"
       x1="13"
       y1="-0.99948543"
       x2="7"
       y2="-11"
       gradientUnits="userSpaceOnUse"
       gradientTransform="scale(1,-1)" /></defs><linearGradient
     id="a"
     gradientUnits="userSpaceOnUse"
     x2="12.417794"
     y1="7.5746484"
     y2="16.090298"
     gradientTransform="translate(4.8460413,-16.601716)"
     x1="3.8148069"><stop
       offset="0"
       stop-color="#ff5f5f"
       id="stop1" /><stop
       offset=".5"
       stop-color="#e1da5b"
       id="stop2" /><stop
       offset="1"
       stop-color="#5fff97"
       id="stop3" /></linearGradient><path
     id="path13"
     style="fill:#ffffff;fill-opacity:1;stroke-width:0.534406;stroke-linecap:round;stroke-linejoin:round"
     d="m 1,9 v 1 3 1 H 3 V 13 H 2 V 10 H 3 V 9 Z"
     sodipodi:nodetypes="ccccccccccc" /><rect
     style="fill:#00ffff;fill-opacity:1;stroke:none;stroke-width:7.07085;stroke-linecap:round;paint-order:stroke fill markers"
     id="rect1"
     width="3.5"
     height="1"
     x="4"
     y="10" /><path
     id="rect3"
     style="fill:#00ffff;fill-opacity:1;stroke-width:7.55906;stroke-linecap:round;paint-order:stroke fill markers"
     d="M 3,11.998047 V 13 l 2,0.002 V 12 Z"
     sodipodi:nodetypes="ccccc" /><path
     id="path22"
     style="fill:#00ffff;fill-opacity:1;stroke-width:6.53343;stroke-linecap:round;paint-order:stroke fill markers"
     d="m 6,12 v 0.998008 l 1.5,0.002 v -0.998055 z"
     sodipodi:nodetypes="ccccc" /><path
     id="path6"
     style="fill:#ffffff;fill-opacity:1;stroke-width:0.534406;stroke-linecap:round;stroke-linejoin:round"
     d="m 7,10 v 1 3 1 H 9 V 14 H 8 v -3 h 1 v -1 z"
     sodipodi:nodetypes="ccccccccccc" /><path
     id="path7"
     style="fill:#ffffff;fill-opacity:1;stroke-width:0.534406;stroke-linecap:round;stroke-linejoin:round"
     d="m 15,10 v 1 3 1 h -2 v -1 h 1 v -3 h -1 v -1 z"
     sodipodi:nodetypes="ccccccccccc" /><path
     id="rect7"
     style="fill:#ffff00;fill-opacity:1;stroke:none;stroke-width:7.55906;stroke-linecap:round;paint-order:stroke fill markers"
     d="m 9,11 v 1 h 2 v -1 z m 3,0 v 1 h 1 v -1 z"
     sodipodi:nodetypes="cccccccccc" /><rect
     style="fill:#ffff00;fill-opacity:1;stroke:none;stroke-width:7.55906;stroke-linecap:round;paint-order:stroke fill markers"
     id="rect4"
     width="4"
     height="1"
     x="9.0212603"
     y="13" /><linearGradient
     id="a-7"
     x2="0"
     y1="1"
     y2="15"
     gradientUnits="userSpaceOnUse"
     gradientTransform="translate(43.650429)"><stop
       offset="0"
       stop-color="#ff5f5f"
       id="stop1-5" /><stop
       offset=".5"
       stop-color="#e1da5b"
       id="stop2-3" /><stop
       offset="1"
       stop-color="#5fff97"
       id="stop3-5" /></linearGradient><path
     id="path2"
     style="fill:url(#linearGradient24);stroke:none;stroke-width:2.1651;stroke-linecap:round;stroke-linejoin:round;paint-order:stroke fill markers"
     d="m 11.929688,1.0019531 a 1.0001,1.0001 0 0 0 -0.246094,0.048828 l -6.0000002,2 A 1.0001,1.0001 0 0 0 5,4 V 7 A 2,2 0 0 0 4,7.2675781 2,2 0 0 0 3,9 H 5 7 A 2,2 0 0 0 7,8.947266 V 4.7207035 L 11,3.3886723 V 6 a 2,2 0 0 0 -2,2 2,2 0 0 0 2,2 2,2 0 0 0 2,-2 V 2 A 1.0001,1.0001 0 0 0 11.929688,1.0019531 Z" /></svg>
