<?xml version="1.0" encoding="UTF-8" standalone="no"?>
<svg
   height="16"
   viewBox="0 0 16 16"
   width="16"
   version="1.1"
   id="svg3"
   sodipodi:docname="CaptionedAudioStreamSequence.svg"
   inkscape:version="1.4 (e7c3feb100, 2024-10-09)"
   xml:space="preserve"
   xmlns:inkscape="http://www.inkscape.org/namespaces/inkscape"
   xmlns:sodipodi="http://sodipodi.sourceforge.net/DTD/sodipodi-0.dtd"
   xmlns:xlink="http://www.w3.org/1999/xlink"
   xmlns="http://www.w3.org/2000/svg"
   xmlns:svg="http://www.w3.org/2000/svg"><sodipodi:namedview
     id="namedview1"
     pagecolor="#505050"
     bordercolor="#eeeeee"
     borderopacity="1"
     inkscape:showpageshadow="0"
     inkscape:pageopacity="0"
     inkscape:pagecheckerboard="0"
     inkscape:deskcolor="#d1d1d1"
     inkscape:zoom="21.990717"
     inkscape:cx="-26.511187"
     inkscape:cy="16.302333"
     inkscape:window-width="2560"
     inkscape:window-height="1534"
     inkscape:window-x="0"
     inkscape:window-y="0"
     inkscape:window-maximized="1"
     inkscape:current-layer="svg3"><inkscape:page
       x="0"
       y="0"
       width="16"
       height="16"
       id="page2"
       margin="0"
       bleed="0" /></sodipodi:namedview><defs
     id="defs3"><linearGradient
       inkscape:collect="always"
       xlink:href="#a-7"
       id="linearGradient19"
       x1="41"
       y1="-2.9999974"
       x2="33"
       y2="-12"
       gradientUnits="userSpaceOnUse"
       gradientTransform="matrix(1,0,0,-1,-26,0)" /><linearGradient
       inkscape:collect="always"
       xlink:href="#a"
       id="linearGradient21"
       x1="36"
       y1="0.9999975"
       x2="28"
       y2="10"
       gradientUnits="userSpaceOnUse"
       gradientTransform="translate(-26)" /></defs><linearGradient
     id="a"
     gradientUnits="userSpaceOnUse"
     x2="12.417794"
     y1="7.5746484"
     y2="16.090298"
     gradientTransform="translate(1,-8)"
     x1="3.8148069"><stop
       offset="0"
       stop-color="#ff5f5f"
       id="stop1" /><stop
       offset=".5"
       stop-color="#e1da5b"
       id="stop2" /><stop
       offset="1"
       stop-color="#5fff97"
       id="stop3" /></linearGradient><path
     id="path9"
     style="fill:#ffffff;fill-opacity:1;stroke-width:0.534406;stroke-linecap:round;stroke-linejoin:round"
     d="m 1,9 v 1 3 1 H 3 V 13 H 2 V 10 H 3 V 9 Z"
     sodipodi:nodetypes="ccccccccccc" /><rect
     style="fill:#00ffff;fill-opacity:1;stroke:none;stroke-width:5.34506;stroke-linecap:round;paint-order:stroke fill markers"
     id="rect9"
     width="2"
     height="1"
     x="3"
     y="-13"
     transform="scale(1,-1)" /><path
     id="path10"
     style="fill:#00ffff;fill-opacity:1;stroke-width:7.55906;stroke-linecap:round;paint-order:stroke fill markers"
     d="M 3,11.001953 V 10 h 0.998047 v 1.001953 z m 2,0 V 10 h 2 v 1.001953 z"
     sodipodi:nodetypes="cccccccccc" /><linearGradient
     id="a-7"
     x2="0"
     y1="1"
     y2="15"
     gradientUnits="userSpaceOnUse"
     gradientTransform="translate(43.650429)"><stop
       offset="0"
       stop-color="#ff5f5f"
       id="stop1-5" /><stop
       offset=".5"
       stop-color="#e1da5b"
       id="stop2-3" /><stop
       offset="1"
       stop-color="#5fff97"
       id="stop3-5" /></linearGradient><path
     id="path2"
     style="fill:url(#linearGradient19);stroke:none;stroke-width:2.1651;stroke-linecap:round;stroke-linejoin:round;paint-order:stroke fill markers"
     d="m 14.001953,3 a 1.0001,1.0001 0 0 0 -0.257812,0.033203 l -5,1.328125 A 1.0001,1.0001 0 0 0 8,5.328125 V 8 a 2,2 0 0 0 -2,2 2,2 0 0 0 2,2 2,2 0 0 0 2,-2 V 6.0976562 l 3,-0.796875 V 7 a 2,2 0 0 0 -2,2 2,2 0 0 0 2,2 2,2 0 0 0 2,-2 V 4 A 1.0001,1.0001 0 0 0 14.001953,3 Z" /><path
     id="path8"
     style="fill:url(#linearGradient21);stroke-linejoin:round;paint-order:stroke fill markers"
     d="M 9.001953,1 A 1.0001,1.0001 0 0 0 8.744141,1.033203 l -5,1.328125 A 1.0001,1.0001 0 0 0 3,3.328125 V 6 A 2,2 0 0 0 2,6.2675781 2,2 0 0 0 1,8 H 3 5 A 2,2 0 0 0 5,7.947266 V 4.0976562 l 3,-0.796875 2,-0.53125 V 2 A 1.0001,1.0001 0 0 0 9.001953,1 Z" /><path
     id="path12"
     style="fill:#ffffff;fill-opacity:1;stroke-width:0.534406;stroke-linecap:round;stroke-linejoin:round"
     d="m 6,12 v 1 1 1 H 8 V 14 H 7 v -1 h 1 v -1 z"
     sodipodi:nodetypes="ccccccccccc" /><path
     id="path14"
     style="fill:#ffffff;fill-opacity:1;stroke-width:0.534406;stroke-linecap:round;stroke-linejoin:round"
     d="m 15,12 v 1 1 1 h -2 v -1 h 1 v -1 h -1 v -1 z"
     sodipodi:nodetypes="ccccccccccc" /><rect
     style="fill:#ffff00;fill-opacity:1;stroke:none;stroke-width:8.45129;stroke-linecap:round;paint-order:stroke fill markers"
     id="rect15"
     width="5"
     height="1"
     x="8"
     y="13" /></svg>
