<?xml version="1.0" encoding="UTF-8" standalone="no"?>
<svg
   height="16"
   viewBox="0 0 16 16"
   width="16"
   version="1.1"
   id="svg3"
   xmlns="http://www.w3.org/2000/svg"
   xmlns:svg="http://www.w3.org/2000/svg">
  <defs
     id="defs3" />
  <linearGradient
     id="a"
     gradientUnits="userSpaceOnUse"
     x2="12.417794"
     y1="6.4340234"
     y2="16.090298"
     gradientTransform="translate(1,-8)"
     x1="5.5648069">
    <stop
       offset="0"
       stop-color="#ff5f5f"
       id="stop1" />
    <stop
       offset=".5"
       stop-color="#e1da5b"
       id="stop2" />
    <stop
       offset="1"
       stop-color="#5fff97"
       id="stop3" />
  </linearGradient>
  <path
     id="path3"
     style="fill:url(#a)"
     d="M 3 1 C 2.4460006 1 2 1.4460006 2 2 L 2 5 C 2 5.5539994 2.4460006 6 3 6 C 3.5539994 6 4 5.5539994 4 5 L 4 2 C 4 1.4460006 3.5539994 1 3 1 z M 9 1 C 8.4460006 1 8 1.4460006 8 2 L 8 6.4921875 C 8 7.0461869 8.4460006 7.4921875 9 7.4921875 C 9.5539994 7.4921875 10 7.0461869 10 6.4921875 L 10 2 C 10 1.4460006 9.5539994 1 9 1 z M 13 2 C 10.333337 2 10.333337 6 13 6 C 15.666663 6 15.666663 2 13 2 z M 5.9492188 2.1542969 C 5.4193906 2.180981 5 2.6176099 5 3.1542969 L 5 4.3457031 C 5 4.8997026 5.4460006 5.3457031 6 5.3457031 C 6.5539994 5.3457031 7 4.8997026 7 4.3457031 L 7 3.1542969 C 7 2.6002974 6.5539994 2.1542969 6 2.1542969 C 5.9826875 2.1542969 5.96631 2.1534361 5.9492188 2.1542969 z " />
  <path
     id="rect12"
     style="fill:#ffffff;fill-opacity:1;stroke-width:0.534406;stroke-linecap:round;stroke-linejoin:round"
     d="m 2,7 v 2 4 2 H 5 V 13 H 4 V 9 H 5 V 7 Z" />
  <path
     id="path4"
     style="fill:#ffffff;fill-opacity:1;stroke-width:0.534406;stroke-linecap:round;stroke-linejoin:round"
     d="M 15,15 V 13 9 7 h -3 v 2 h 1 v 4 h -1 v 2 z" />
  <path
     id="path13"
     style="fill:#ffffff;fill-opacity:1;stroke-width:0.534406;stroke-linecap:round;stroke-linejoin:round"
     d="m 6,8 v 1 4 1 H 8 V 13 H 7 V 9 H 8 V 8 Z" />
  <path
     id="path14"
     style="fill:#ffffff;fill-opacity:1;stroke-width:0.534406;stroke-linecap:round;stroke-linejoin:round"
     d="M 11,14 V 13 9 8 H 9 v 1 h 1 v 4 H 9 v 1 z" />
</svg>
