<?xml version="1.0" encoding="UTF-8" standalone="no"?>
<svg
   height="16"
   viewBox="0 0 16 16"
   width="16"
   version="1.1"
   id="svg3"
   sodipodi:docname="MultiCaptionAudioStream.svg"
   inkscape:version="1.3.2 (091e20ef0f, 2023-11-25)"
   xmlns:inkscape="http://www.inkscape.org/namespaces/inkscape"
   xmlns:sodipodi="http://sodipodi.sourceforge.net/DTD/sodipodi-0.dtd"
   xmlns="http://www.w3.org/2000/svg"
   xmlns:svg="http://www.w3.org/2000/svg">
  <sodipodi:namedview
     id="namedview1"
     pagecolor="#505050"
     bordercolor="#eeeeee"
     borderopacity="1"
     inkscape:showpageshadow="0"
     inkscape:pageopacity="0"
     inkscape:pagecheckerboard="0"
     inkscape:deskcolor="#d1d1d1"
     inkscape:zoom="45.254834"
     inkscape:cx="0.46403882"
     inkscape:cy="13.611806"
     inkscape:window-width="3840"
     inkscape:window-height="2096"
     inkscape:window-x="0"
     inkscape:window-y="0"
     inkscape:window-maximized="1"
     inkscape:current-layer="svg3" />
  <defs
     id="defs3" />
  <linearGradient
     id="a"
     gradientUnits="userSpaceOnUse"
     x2="12.417794"
     y1="7.5746484"
     y2="16.090298"
     gradientTransform="translate(1,-8)"
     x1="3.8148069">
    <stop
       offset="0"
       stop-color="#ff5f5f"
       id="stop1" />
    <stop
       offset=".5"
       stop-color="#e1da5b"
       id="stop2" />
    <stop
       offset="1"
       stop-color="#5fff97"
       id="stop3" />
  </linearGradient>
  <path
     id="path3"
     style="fill:url(#a)"
     d="m 3,1.7421875 c -0.5539994,0 -1,0.4460006 -1,1 v 1.4123853 c 0,0.5539994 0.4460006,1 1,1 0.5539994,0 1,-0.4460006 1,-1 V 2.7421875 c 0,-0.5539994 -0.4460006,-1 -1,-1 z M 9,2.296875 c -0.5539994,0 -1,0.4460006 -1,1 V 5.125 c 0,0.5539994 0.4460006,1 1,1 0.5539994,0 1,-0.4460006 1,-1 V 3.296875 c 0,-0.5539994 -0.4460006,-1 -1,-1 z M 13,2 c -2.666663,0 -2.666663,4 0,4 2.666663,0 2.666663,-4 0,-4 z M 5.9492188,0.7792969 C 5.4193906,0.805981 5,1.2426099 5,1.7792969 v 3.8224578 c 0,0.5539995 0.4460006,1 1,1 0.5539994,0 1,-0.4460005 1,-1 V 1.7792969 c 0,-0.5539995 -0.4460006,-1 -1,-1 -0.017313,0 -0.03369,-8.608e-4 -0.050781,0 z"
     sodipodi:nodetypes="sssssssssssssssssssssssss" />
  <path
     id="path13"
     style="fill:#ffffff;fill-opacity:1;stroke-width:0.534406;stroke-linecap:round;stroke-linejoin:round"
     d="m 2,6 v 1 3 1 H 4 V 10 H 3 V 7 H 4 V 6 Z"
     sodipodi:nodetypes="ccccccccccc" />
  <rect
     style="fill:#00ffff;fill-opacity:1;stroke:none;stroke-width:7.55906;stroke-linecap:round;paint-order:stroke fill markers"
     id="rect1"
     width="4"
     height="1"
     x="5"
     y="7" />
  <path
     id="rect3"
     style="fill:#00ffff;fill-opacity:1;stroke-width:7.55906;stroke-linecap:round;paint-order:stroke fill markers"
     d="M 4,8.998047 V 10 H 4.9980469 V 8.998047 Z m 3,0 V 10 H 9.9980469 V 8.998047 Z"
     sodipodi:nodetypes="cccccccccc" />
  <path
     id="path5"
     style="fill:#ffffff;fill-opacity:1;stroke-width:0.534406;stroke-linecap:round;stroke-linejoin:round"
     d="m 12,6 v 1 3 1 h -2 v -1 h 1 V 7 H 10 V 6 Z"
     sodipodi:nodetypes="ccccccccccc" />
  <path
     id="path6"
     style="fill:#ffffff;fill-opacity:1;stroke-width:0.534406;stroke-linecap:round;stroke-linejoin:round"
     d="m 5,10 v 1 3 1 H 7 V 14 H 6 v -3 h 1 v -1 z"
     sodipodi:nodetypes="ccccccccccc" />
  <path
     id="path7"
     style="fill:#ffffff;fill-opacity:1;stroke-width:0.534406;stroke-linecap:round;stroke-linejoin:round"
     d="m 15.04252,10 v 1 3 1 h -2 v -1 h 1 v -3 h -1 v -1 z"
     sodipodi:nodetypes="ccccccccccc" />
  <path
     id="rect7"
     style="fill:#ffff00;fill-opacity:1;stroke:none;stroke-width:7.55906;stroke-linecap:round;paint-order:stroke fill markers"
     d="m 7,11 v 1 h 3 v -1 z m 4,0 v 1 h 2 v -1 z" />
  <rect
     style="fill:#ffff00;fill-opacity:1;stroke:none;stroke-width:7.55906;stroke-linecap:round;paint-order:stroke fill markers"
     id="rect4"
     width="4"
     height="1"
     x="8.0212603"
     y="13" />
</svg>
