<?xml version="1.0" encoding="UTF-8" standalone="no"?>
<svg
   height="16"
   viewBox="0 0 16 16"
   width="16"
   version="1.1"
   id="svg3"
   sodipodi:docname="SimpleCaptionedAudioStream.svg"
   inkscape:version="1.4 (e7c3feb100, 2024-10-09)"
   xml:space="preserve"
   xmlns:inkscape="http://www.inkscape.org/namespaces/inkscape"
   xmlns:sodipodi="http://sodipodi.sourceforge.net/DTD/sodipodi-0.dtd"
   xmlns:xlink="http://www.w3.org/1999/xlink"
   xmlns="http://www.w3.org/2000/svg"
   xmlns:svg="http://www.w3.org/2000/svg"><sodipodi:namedview
     id="namedview1"
     pagecolor="#505050"
     bordercolor="#eeeeee"
     borderopacity="1"
     inkscape:showpageshadow="0"
     inkscape:pageopacity="0"
     inkscape:pagecheckerboard="0"
     inkscape:deskcolor="#d1d1d1"
     inkscape:zoom="26.246313"
     inkscape:cx="6.1722955"
     inkscape:cy="2.8956448"
     inkscape:window-width="2560"
     inkscape:window-height="1534"
     inkscape:window-x="0"
     inkscape:window-y="0"
     inkscape:window-maximized="1"
     inkscape:current-layer="svg3"><inkscape:page
       x="0"
       y="0"
       width="16"
       height="16"
       id="page1"
       margin="0"
       bleed="0" /></sodipodi:namedview><defs
     id="defs3"><linearGradient
       inkscape:collect="always"
       xlink:href="#a"
       id="linearGradient25"
       x1="13"
       y1="-0.99948543"
       x2="5.871037"
       y2="-10.998047"
       gradientUnits="userSpaceOnUse"
       gradientTransform="scale(1,-1)" /></defs><linearGradient
     id="a"
     gradientUnits="userSpaceOnUse"
     x2="12.417794"
     y1="7.5746484"
     y2="16.090298"
     gradientTransform="translate(4.8460413,-16.601716)"
     x1="3.8148069"><stop
       offset="0"
       stop-color="#ff5f5f"
       id="stop1" /><stop
       offset=".5"
       stop-color="#e1da5b"
       id="stop2" /><stop
       offset="1"
       stop-color="#5fff97"
       id="stop3" /></linearGradient><linearGradient
     id="a-7"
     x2="0"
     y1="1"
     y2="15"
     gradientUnits="userSpaceOnUse"
     gradientTransform="translate(43.650429)"><stop
       offset="0"
       stop-color="#ff5f5f"
       id="stop1-5" /><stop
       offset=".5"
       stop-color="#e1da5b"
       id="stop2-3" /><stop
       offset="1"
       stop-color="#5fff97"
       id="stop3-5" /></linearGradient><path
     id="path2"
     style="fill:url(#linearGradient25);stroke:none;stroke-width:2.1651;stroke-linecap:round;stroke-linejoin:round;paint-order:stroke fill markers"
     d="m 11.929688,1.0019531 c -0.08376,0.00588 -0.166438,0.022286 -0.246094,0.048828 l -6.0000002,2 C 5.2751545,3.1870457 4.9997749,3.5694299 5,4 V 7 C 4.6489604,6.9998872 4.3040744,7.0921711 4,7.2675781 3.381083,7.62491 2.9998674,8.2853362 3,9 H 5 7 C 7.0002318,8.982423 7.0002318,8.964843 7,8.947266 V 4.7207035 L 11,3.3886723 V 6 C 9.8954305,6 9,6.8954305 9,8 c 0,1.1045695 0.8954305,2 2,2 1.104569,0 2,-0.8954305 2,-2 V 2 C 13.00024,1.4198496 12.508407,0.9612236 11.929688,1.0019531 Z"
     sodipodi:nodetypes="cccccccccccccssscc" /><linearGradient
     id="a-70"
     gradientUnits="userSpaceOnUse"
     x2="12.417794"
     y1="6.4340234"
     y2="16.090298"
     gradientTransform="translate(27,-8)"
     x1="5.5648069"><stop
       offset="0"
       stop-color="#ff5f5f"
       id="stop1-9" /><stop
       offset=".5"
       stop-color="#e1da5b"
       id="stop2-36" /><stop
       offset="1"
       stop-color="#5fff97"
       id="stop3-0" /></linearGradient><path
     id="path6-6"
     style="fill:#ffffff;fill-opacity:1;stroke-width:0.534406;stroke-linecap:round;stroke-linejoin:round"
     d="m 2.001953,9.998047 v 1 L 2,14.002094 v 1 h 2 v -1 H 3 l 0.00195,-3.004047 h 1 v -1 z"
     sodipodi:nodetypes="ccccccccccc" /><path
     id="path7-2"
     style="fill:#ffffff;fill-opacity:1;stroke-width:0.534406;stroke-linecap:round;stroke-linejoin:round"
     d="m 14,9.998047 v 1 3.004047 1 h -2 v -1 h 1 v -3.004047 h -1 v -1 z"
     sodipodi:nodetypes="ccccccccccc" /><path
     id="rect2"
     style="fill:#ffffff;fill-opacity:1;stroke-width:7.55906;stroke-linecap:round;paint-order:stroke fill markers"
     d="M 4.001953,10.998047 V 12 H 9 v -1.001953 z m 5.998047,0 V 12 h 2 v -1.001953 z" /><path
     id="rect3-1"
     style="fill:#ffffff;fill-opacity:1;stroke-width:7.55906;stroke-linecap:round;paint-order:stroke fill markers"
     d="m 5.001953,13 v 1.001953 H 6 V 13 Z M 7,13 v 1.001953 h 4 V 13 Z"
     sodipodi:nodetypes="cccccccccc" /></svg>
