<?xml version="1.0" encoding="UTF-8" standalone="no"?>
<svg
   height="128"
   width="128"
   version="1.1"
   id="svg7"
   sodipodi:docname="icon.svg"
   inkscape:version="1.3.2 (091e20ef0f, 2023-11-25)"
   xmlns:inkscape="http://www.inkscape.org/namespaces/inkscape"
   xmlns:sodipodi="http://sodipodi.sourceforge.net/DTD/sodipodi-0.dtd"
   xmlns="http://www.w3.org/2000/svg"
   xmlns:svg="http://www.w3.org/2000/svg">
  <defs
     id="defs7" />
  <sodipodi:namedview
     id="namedview7"
     pagecolor="#ffffff"
     bordercolor="#000000"
     borderopacity="0.25"
     inkscape:showpageshadow="2"
     inkscape:pageopacity="0.0"
     inkscape:pagecheckerboard="0"
     inkscape:deskcolor="#d1d1d1"
     inkscape:zoom="7.8337978"
     inkscape:cx="47.486546"
     inkscape:cy="57.507228"
     inkscape:window-width="2560"
     inkscape:window-height="1534"
     inkscape:window-x="0"
     inkscape:window-y="0"
     inkscape:window-maximized="1"
     inkscape:current-layer="svg7" />
  <g
     transform="matrix(0.101,0,0,0.101,12.322,-0.71633841)"
     id="g7">
    <g
       fill="#ffffff"
       id="g4">
      <path
         d="m 105,673 v 33 q 407,354 814,0 v -33 z"
         id="path1" />
      <path
         fill="#478cbf"
         d="m 105,673 152,14 q 12,1 15,14 l 4,67 132,10 8,-61 q 2,-11 15,-15 h 162 q 13,4 15,15 l 8,61 132,-10 4,-67 q 3,-13 15,-14 L 919,673 V 427 q 30,-39 56,-81 -35,-59 -83,-108 -43,20 -82,47 -40,-37 -88,-64 7,-51 8,-102 -59,-28 -123,-42 -26,43 -46,89 -49,-7 -98,0 -20,-46 -46,-89 -64,14 -123,42 1,51 8,102 -48,27 -88,64 -39,-27 -82,-47 -48,49 -83,108 26,42 56,81 z m 0,33 v 39 c 0,276 813,276 813,0 v -39 l -134,12 -5,69 q -2,10 -14,13 l -162,11 q -12,0 -16,-11 L 577,735 H 447 l -10,65 q -4,11 -16,11 L 259,800 q -12,-3 -14,-13 l -5,-69 z"
         id="path2" />
      <path
         d="m 483,600 c 3,34 55,34 58,0 v -86 c -3,-34 -55,-34 -58,0 z"
         id="path3" />
      <circle
         cx="725"
         cy="526"
         r="90"
         id="circle3" />
      <circle
         cx="299"
         cy="526"
         r="90"
         id="circle4" />
    </g>
    <g
       fill="#414042"
       id="g6"
       transform="translate(0,19.80198)">
      <circle
         cx="307"
         cy="532"
         r="60"
         id="circle5" />
      <circle
         cx="717"
         cy="532"
         r="60"
         id="circle6" />
    </g>
  </g>
  <rect
     style="fill:#000000;stroke-width:1.39778;stroke-linecap:round;stroke-linejoin:round"
     id="rect7"
     width="82.213997"
     height="62.122002"
     x="22.927"
     y="59.889225" />
  <g
     id="g9"
     transform="matrix(1.1215267,0,0,1.1215267,-7.7777072,-11.052101)"
     style="fill:#8eef97;fill-opacity:1">
    <path
       id="path8"
       style="fill:#8eef97;fill-opacity:1;stroke-width:1.91112;stroke-linecap:round;stroke-linejoin:round"
       d="M 33.644126 69.486538 L 33.644126 76.638828 L 33.644126 105.24799 L 33.644126 112.40028 L 47.948706 112.40028 L 47.948706 105.24799 L 40.796416 105.24799 L 40.796416 76.638828 L 47.948706 76.638828 L 47.948706 69.486538 L 33.644126 69.486538 z M 80.253304 69.486538 L 80.253304 76.638828 L 87.405594 76.638828 L 87.405594 105.24799 L 80.253304 105.24799 L 80.253304 112.40028 L 94.557884 112.40028 L 94.557884 105.24799 L 94.557884 69.486538 L 80.253304 69.486538 z " />
  </g>
  <g
     id="g8"
     transform="matrix(1.1215267,0,0,1.1215267,-7.7777072,-11.052101)">
    <path
       id="rect12"
       style="fill:#ffffff;fill-opacity:1;stroke-width:1.91112;stroke-linecap:round;stroke-linejoin:round"
       d="m 56.651937,79.453995 c -1.779529,0 -3.366324,0.303295 -4.75658,0.914998 -1.39026,0.611711 -2.575051,1.450912 -3.54823,2.507508 -0.973179,1.028788 -1.720776,2.248905 -2.249073,3.666966 -0.500491,1.390256 -0.754349,2.878331 -0.754349,4.463224 0,1.640502 0.21153,3.170887 0.628626,4.588948 0.444882,1.390251 1.128946,2.596271 2.046515,3.625061 0.945374,1.02879 2.137285,1.85388 3.583151,2.4656 1.445869,0.58391 3.173694,0.87309 5.175664,0.87309 1.306842,0 2.49875,-0.11283 3.583151,-0.33527 1.084401,-0.22244 1.987129,-0.48342 2.710066,-0.78927 L 62.197789,96.343 c -0.722933,0.30587 -1.519825,0.53151 -2.381784,0.67053 -0.861957,0.13905 -1.665965,0.20953 -2.416706,0.20953 -2.113189,0 -3.601264,-0.54303 -4.463224,-1.627432 -0.834155,-1.084401 -1.25026,-2.614782 -1.25026,-4.588948 0,-1.862943 0.444314,-3.365119 1.334078,-4.505133 0.917569,-1.14001 2.292816,-1.711249 4.127959,-1.711249 0.861956,0 1.644743,0.08461 2.339871,0.25144 0.695132,0.166828 1.329901,0.364272 1.913811,0.586713 l 1.292169,-4.966101 c -0.917569,-0.389273 -1.862611,-0.678453 -2.835789,-0.873089 -0.973179,-0.222438 -2.038161,-0.335266 -3.205977,-0.335266 z"
       sodipodi:nodetypes="ssccscccsscccscscsscccs" />
    <path
       id="path7"
       style="fill:#ffffff;fill-opacity:1;stroke-width:1.91112;stroke-linecap:round;stroke-linejoin:round"
       d="m 74.651937,79.453995 c -1.779529,0 -3.366324,0.303295 -4.75658,0.914998 -1.39026,0.611711 -2.575051,1.450912 -3.54823,2.507508 -0.973179,1.028788 -1.720776,2.248905 -2.249073,3.666966 -0.500491,1.390256 -0.754349,2.878331 -0.754349,4.463224 0,1.640502 0.21153,3.170887 0.628626,4.588948 0.444882,1.390251 1.128946,2.596271 2.046515,3.625061 0.945374,1.02879 2.137285,1.85388 3.583151,2.4656 1.445869,0.58391 3.173694,0.87309 5.175664,0.87309 1.306842,0 2.49875,-0.11283 3.583151,-0.33527 1.084401,-0.22244 1.987129,-0.48342 2.710066,-0.78927 L 80.197789,96.343 c -0.722933,0.30587 -1.519825,0.53151 -2.381784,0.67053 -0.861957,0.13905 -1.665965,0.20953 -2.416706,0.20953 -2.113189,0 -3.601264,-0.54303 -4.463224,-1.627432 -0.834155,-1.084401 -1.25026,-2.614782 -1.25026,-4.588948 0,-1.862943 0.444314,-3.365119 1.334078,-4.505133 0.917569,-1.14001 2.292816,-1.711249 4.127959,-1.711249 0.861956,0 1.644743,0.08461 2.339871,0.25144 0.695132,0.166828 1.329901,0.364272 1.913811,0.586713 l 1.292169,-4.966101 c -0.917569,-0.389273 -1.862611,-0.678453 -2.835789,-0.873089 -0.973179,-0.222438 -2.038161,-0.335266 -3.205977,-0.335266 z"
       sodipodi:nodetypes="ssccscccsscccscscsscccs" />
  </g>
</svg>
